<svg width="130" height="50" viewBox="0 0 130 50" fill="none" xmlns="http://www.w3.org/2000/svg">
<path d="M56.5163 39.989H62.9094C62.7681 37.9075 61.646 36.8305 59.7477 36.8305C58.132 36.8305 56.9382 37.9075 56.5163 39.989ZM59.6085 49.9648C54.7963 49.9648 51.915 47.0595 51.915 41.9274C51.915 37.0463 54.9703 33.6763 59.889 33.6763C64.736 33.6763 67.265 36.4736 67.265 41.6058C67.265 41.9648 67.265 42.2886 67.2302 42.6454H56.3772C56.5881 45.2644 57.8167 46.5573 59.8194 46.5573C61.4699 46.5573 62.5941 45.7313 63.0508 44.3679L67.0541 44.9428C66.1756 48.456 63.4357 49.9648 59.6085 49.9648Z" fill="#00BE64"/>
<path d="M78.8891 49.6055H69.8975V46.5901L71.2326 46.5196C71.7241 46.4844 71.9002 46.2685 71.9002 45.7663V38.0527C71.9002 37.5505 71.7589 37.3699 71.3022 37.3346L69.8975 37.2267V33.9976H75.5186V35.6474C75.5186 36.6518 75.5186 37.5857 75.4142 38.5174C76.4319 35.3611 77.7671 33.6738 80.0503 33.6738C80.6135 33.6738 81.1049 33.7796 81.5616 33.9602V38.7509C80.7679 38.4183 79.9807 38.339 79.4893 38.339C78.4151 38.339 77.4691 38.8236 76.6885 40.1584C76.2862 40.8478 76.0818 41.6452 76.0818 42.447V45.7663C76.0818 46.2333 76.2232 46.4844 76.7494 46.4844L78.8913 46.5901V49.6055H78.8891Z" fill="#00BE64"/>
<path d="M92.6347 46.3394C94.7766 46.3394 96.1835 44.7601 96.1835 41.7468C96.1835 38.7689 94.7788 37.2623 92.7412 37.2623C90.1775 37.2623 89.0881 39.6301 89.0881 41.9979C89.0859 44.7975 90.4906 46.3394 92.6347 46.3394ZM88.4553 47.3085L88.2791 49.6037H83.1494V46.5905L84.4498 46.4847C84.9412 46.4473 85.1521 46.1984 85.1521 45.6962V32.8504C85.1521 32.3482 84.976 32.205 84.5194 32.1676L83.1494 32.0596V28.9385H89.2968V32.9561C89.2968 33.9253 89.2272 34.9649 89.1206 35.9715C90.2797 34.4275 91.9997 33.6764 93.9329 33.6764C98.0775 33.6764 100.783 36.4385 100.783 41.5684C100.783 46.7358 97.6905 49.9649 93.5458 49.9649C91.0886 49.9649 89.4381 48.9957 88.4553 47.3085Z" fill="#00BE64"/>
<path d="M111.414 46.5901C113.625 46.5901 114.96 44.7619 114.96 41.784C114.96 38.8412 113.697 37.0483 111.625 37.0483C109.411 37.0483 108.041 38.8434 108.041 41.8214C108.041 44.7619 109.341 46.5901 111.414 46.5901ZM111.729 33.6738C116.683 33.6738 119.457 36.8677 119.457 41.7465C119.457 46.7333 116.611 49.9624 111.272 49.9624C106.319 49.9624 103.509 46.9492 103.509 41.9249C103.509 37.0108 106.425 33.6738 111.729 33.6738Z" fill="#00BE64"/>
<path d="M120.984 49.6059V46.5905L122.354 46.52C122.81 46.4847 123.021 46.2689 123.021 45.7667V32.8856C123.021 32.3834 122.845 32.2028 122.389 32.1676L121.019 32.0596V28.9385H127.166V45.7667C127.166 46.2689 127.305 46.4847 127.799 46.52L129.169 46.5905V49.6059H120.984V49.6059Z" fill="#00BE64"/>
<path d="M40.1719 44.2953V37.2997H37.8887V34.1785L39.5043 34.0001C39.961 33.9296 40.1371 33.7843 40.1719 33.2843L40.5938 28.9429H44.3514V34.0023H49.7616V37.3041H44.3514V44.194C44.3514 45.7711 44.8428 46.7402 45.7561 46.7402C46.6346 46.7402 47.1261 46.0949 47.1956 44.7314C47.2304 43.8349 47.2652 43.0464 47.2304 42.1477H49.9355C50.0399 43.0442 50.0747 43.727 50.0747 44.5156C50.0747 47.7799 48.8809 49.9693 45.1211 49.9693C42.1725 49.9649 40.1719 48.4935 40.1719 44.2953Z" fill="#00BE64"/>
<path d="M32.9049 16.8062C32.9049 14.4736 31.9242 12.3767 30.3585 10.9207C30.365 10.7974 30.3672 10.674 30.3672 10.5507C30.3672 6.15419 26.8793 2.59031 22.5759 2.59031C22.4541 2.59031 22.3345 2.59471 22.2128 2.59912C20.7884 1.0022 18.7357 0 16.4525 0C14.1692 0 12.1164 1.0022 10.6921 2.59912C10.5725 2.59251 10.4508 2.59031 10.329 2.59031C6.0256 2.59031 2.53767 6.15419 2.53767 10.5507C2.53767 10.674 2.54202 10.7974 2.54637 10.9207C0.982889 12.3767 0 14.4736 0 16.8062C0 19.1388 0.980715 21.2357 2.54637 22.6894C2.53985 22.8128 2.53767 22.9361 2.53767 23.0595C2.53767 27.3744 5.89948 30.8855 10.0941 31.0132H10.0963C14.0822 31.2599 17.2396 34.6476 17.2396 38.7841C17.2396 38.7908 17.2396 38.7974 17.2396 38.804C17.2462 40.7467 18.1333 42.4802 19.5142 43.6057C20.197 42.1454 20.584 40.511 20.5797 38.7841C20.5579 32.2577 15.3674 27.7841 10.1333 27.6057C8.28494 27.5242 6.74103 26.3194 6.13651 24.5815C5.97125 24.1057 5.87557 23.5947 5.87557 23.0595C5.87557 22.4714 5.98864 21.9097 6.1887 21.3943C6.25176 21.2313 6.17564 21.0463 6.0169 20.9758C5.03402 20.5375 4.23597 19.7489 3.77497 18.7621C3.4988 18.1696 3.3379 17.5066 3.3379 16.8062C3.3379 16.1057 3.49663 15.4449 3.77497 14.8502C4.23597 13.8634 5.03184 13.0749 6.0169 12.6366C6.17347 12.5661 6.25176 12.3811 6.1887 12.2181C5.98864 11.7027 5.87557 11.141 5.87557 10.5529C5.87557 9.92291 6.00822 9.32599 6.23219 8.77973C6.67579 7.69823 7.53037 6.8238 8.58719 6.36785C9.1243 6.13657 9.71143 6 10.3333 6C10.9096 6 11.4597 6.11454 11.9642 6.31938C12.123 6.38326 12.3056 6.30397 12.3752 6.14317C12.8036 5.13877 13.5777 4.32599 14.5432 3.85463C15.1238 3.57269 15.7718 3.4075 16.4568 3.4075C17.1418 3.4075 17.7898 3.57048 18.3704 3.85463C19.3359 4.32599 20.11 5.13877 20.5384 6.14317C20.608 6.30397 20.7884 6.38326 20.9494 6.31938C21.4539 6.11454 22.004 6 22.5803 6C23.2 6 23.7893 6.13657 24.3264 6.36785C25.3832 6.8238 26.2378 7.69823 26.6814 8.77973C26.9054 9.32599 27.0359 9.92291 27.0359 10.5529C27.0359 11.141 26.9228 11.7027 26.7227 12.2181C26.6597 12.3811 26.7358 12.5661 26.8945 12.6366C27.8774 13.0749 28.6754 13.8634 29.1364 14.8502C29.4126 15.4427 29.5735 16.1035 29.5735 16.8062C29.5735 17.5066 29.4148 18.1696 29.1364 18.7621C28.6754 19.7489 27.8796 20.5375 26.8945 20.9758C26.7379 21.0463 26.6597 21.2313 26.7227 21.3943C26.9228 21.9097 27.0359 22.4714 27.0359 23.0595C27.0359 23.5947 26.951 24.1079 26.7814 24.5815C26.1639 26.2864 24.6939 27.5507 22.5868 27.6145C21.7865 27.6432 19.8273 27.8921 17.8354 29.0727C18.7009 29.837 19.4707 30.7313 20.1056 31.7093C20.1078 31.7137 21.2103 31.1212 22.8129 31.011C27.0076 30.8833 30.3694 27.3722 30.3694 23.0573C30.3694 22.9339 30.365 22.8106 30.3607 22.6872C31.9242 21.2357 32.9049 19.1388 32.9049 16.8062Z" fill="#00BE64"/>
<path d="M12.8061 45.8589C11.8384 46.3148 10.7621 46.5659 9.62695 46.5659V49.9756C11.6101 49.9734 13.4715 49.4382 15.0763 48.4955C14.2065 47.7289 13.4411 46.8391 12.8061 45.8589Z" fill="#00BE64"/>
<path d="M20.1035 45.8545C19.612 45.6254 19.1576 45.3435 18.7292 45.0197C17.7746 44.295 16.9895 43.3369 16.4546 42.2399C16.0219 41.3545 15.7435 40.3545 15.6827 39.273C15.6674 39.0902 15.6631 38.4646 15.6544 38.3391C15.5283 36.5725 14.6737 35.0043 13.3972 33.9624C12.7123 35.4228 12.3252 37.0747 12.3252 38.8016C12.3252 41.11 13.0123 43.2355 14.1866 45.0175C14.1953 45.0351 15.0651 46.4117 16.4655 47.5373C19.6381 50.0924 22.8434 49.9514 23.2826 49.9668V46.5791C23.2804 46.5791 23.2804 46.5593 23.2783 46.5593C21.4169 46.5593 20.1122 45.8567 20.1035 45.8545Z" fill="#00BE64"/>
<path d="M65.7101 30.956L57.3056 32.6983L56.8076 30.4714L65.0208 27.7842L65.7101 30.956Z" fill="#00BE64"/>
</svg>
