<svg width="200" height="33" viewBox="0 0 200 33" fill="none" xmlns="http://www.w3.org/2000/svg">
<g clip-path="url(#clip0_173_239)">
<path d="M40.7483 19.3851H46.4087C46.2856 17.5512 45.2921 16.6019 43.6104 16.6019C42.1793 16.6019 41.122 17.5512 40.7528 19.3851M43.4873 28.1653C39.2261 28.1653 36.6785 25.6044 36.6785 21.0893C36.6785 16.5741 39.3856 13.8233 43.738 13.8233C48.0904 13.8233 50.2688 16.287 50.2688 20.8068C50.2688 21.1217 50.2688 21.4088 50.2369 21.7237H40.6298C40.8166 24.0299 41.9059 25.1691 43.6787 25.1691C45.1417 25.1691 46.1352 24.442 46.5408 23.2426L50.0865 23.7474C49.3118 26.8455 46.8826 28.1699 43.4964 28.1699" fill="#272726"/>
<path d="M60.5552 27.8504H52.5933V25.1969L53.7736 25.1321C54.2112 25.0996 54.3661 24.9098 54.3661 24.4698V17.6763C54.3661 17.2363 54.2431 17.0742 53.8374 17.0465L52.5933 16.9492V14.1058H57.57V15.5599C57.57 16.4444 57.57 17.2687 57.4789 18.0884C58.3812 15.3099 59.5616 13.8233 61.5852 13.8233C62.0819 13.8233 62.5194 13.9159 62.9205 14.0734V18.2922C62.2186 18.0004 61.5213 17.931 61.0838 17.931C60.1313 17.931 59.2973 18.357 58.6046 19.5333C58.2491 20.1399 58.0668 20.8438 58.0668 21.5477V24.4698C58.0668 24.882 58.1898 25.1043 58.6593 25.1043L60.5552 25.1969V27.8504Z" fill="#272726"/>
<path d="M72.7236 24.9746C74.6195 24.9746 75.8637 23.5853 75.8637 20.9318C75.8637 18.2783 74.6195 16.9816 72.8147 16.9816C70.5451 16.9816 69.5835 19.0655 69.5835 21.1541C69.5835 23.6177 70.8277 24.9792 72.7236 24.9792M69.0229 25.8313L68.868 27.855H64.3287V25.2015L65.4772 25.1089C65.9147 25.0765 66.1016 24.8542 66.1016 24.4143V13.0963C66.1016 12.6563 65.9466 12.5267 65.541 12.4942L64.3287 12.397V9.65086H69.7704V13.1889C69.7704 14.041 69.7066 14.9579 69.6154 15.8424C70.6408 14.4855 72.163 13.8187 73.8766 13.8187C77.5454 13.8187 79.9426 16.2499 79.9426 20.7697C79.9426 25.2895 77.2082 28.1607 73.5348 28.1607C71.3564 28.1607 69.898 27.3086 69.0275 25.8221" fill="#272726"/>
<path d="M89.3446 25.1969C91.3043 25.1969 92.4847 23.5853 92.4847 20.9642C92.4847 18.3431 91.3636 16.7918 89.5315 16.7918C87.5718 16.7918 86.3595 18.3709 86.3595 20.992C86.3595 23.6131 87.508 25.1923 89.3446 25.1923M89.6226 13.8187C94.0069 13.8187 96.4634 16.6297 96.4634 20.9272C96.4634 25.2247 93.9431 28.1607 89.217 28.1607C84.8327 28.1607 82.3444 25.5072 82.3444 21.0846C82.3444 16.6621 84.9239 13.8187 89.6181 13.8187" fill="#272726"/>
<path d="M97.817 27.8504V25.1969L99.0293 25.1321C99.4349 25.0996 99.6218 24.9098 99.6218 24.4698V13.1287C99.6218 12.6841 99.4668 12.5267 99.0612 12.4942L97.8489 12.4016V9.65086H103.291V24.4698C103.291 24.9144 103.414 25.1043 103.851 25.1321L105.063 25.1969V27.8504H97.817Z" fill="#272726"/>
<path d="M25.9411 23.1732V17.014H23.9176V14.2633L25.3486 14.1058C25.7543 14.041 25.9092 13.9159 25.9411 13.476L26.3148 9.65086H29.6418V14.1058H34.4317V17.014H29.6418V23.0806C29.6418 24.4698 30.0793 25.3219 30.886 25.3219C31.6926 25.3219 32.0983 24.7523 32.1621 23.5529C32.194 22.761 32.2259 22.0664 32.194 21.2791H34.5912C34.6823 22.071 34.7142 22.6684 34.7142 23.363C34.7142 26.2388 33.6569 28.1653 30.33 28.1653C27.7185 28.1653 25.9457 26.8687 25.9457 23.1732" fill="#272726"/>
<path d="M19.3009 9.80368C19.3009 8.44218 18.7266 7.21962 17.806 6.36753C17.806 6.29806 17.8106 6.22397 17.8106 6.14987C17.8106 3.58434 15.7643 1.50505 13.2394 1.50505C13.1665 1.50505 13.0982 1.50505 13.0252 1.50968C12.1912 0.578866 10.9835 -0.00926208 9.64361 -0.00926208C8.30371 -0.00926208 7.10054 0.574235 6.26652 1.50968C6.1936 1.50968 6.12524 1.50505 6.05232 1.50505C3.5366 1.50968 1.49029 3.58897 1.49029 6.1545C1.49029 6.2286 1.49029 6.29806 1.49485 6.37216C0.578799 7.21962 0 8.44681 0 9.80831C0 11.1698 0.574241 12.3924 1.49485 13.2445C1.49485 13.3139 1.49029 13.388 1.49029 13.4621C1.49029 15.9813 3.46368 18.0282 5.92471 18.1023C8.26269 18.2459 10.1176 20.2233 10.1176 22.636V22.6452C10.1176 23.7798 10.6417 24.7894 11.4529 25.447C11.854 24.5949 12.0819 23.6409 12.0773 22.6313C12.0636 18.8247 9.01923 16.2129 5.9475 16.1064C4.86282 16.0601 3.95588 15.3562 3.6004 14.342C3.50469 14.0641 3.45 13.7678 3.45 13.4528C3.45 13.1102 3.51837 12.7814 3.6323 12.4804C3.66876 12.3877 3.62319 12.2766 3.53204 12.2349C2.95324 11.9802 2.48838 11.5171 2.21493 10.9429C2.05086 10.5956 1.95971 10.2112 1.95971 9.80368C1.95971 9.39615 2.05542 9.00716 2.21493 8.66447C2.48382 8.09023 2.95324 7.62714 3.53204 7.37244C3.62319 7.33076 3.66876 7.22425 3.6323 7.127C3.51381 6.82599 3.45 6.49719 3.45 6.1545C3.45 5.78866 3.52748 5.43671 3.65965 5.11718C3.91942 4.48737 4.42075 3.97334 5.04056 3.70937C5.35503 3.57508 5.7014 3.49635 6.06599 3.49635C6.40325 3.49635 6.72683 3.56118 7.02306 3.68159C7.11877 3.71864 7.22359 3.67233 7.26461 3.57971C7.51527 2.99158 7.97101 2.51923 8.53614 2.24137C8.87795 2.07466 9.25622 1.98204 9.65728 1.98204C10.0583 1.98204 10.4412 2.07929 10.7784 2.24137C11.3435 2.51459 11.7993 2.99158 12.05 3.57971C12.091 3.67233 12.1958 3.71864 12.2915 3.68159C12.5877 3.56118 12.9113 3.49635 13.2486 3.49635C13.6132 3.49635 13.955 3.57508 14.274 3.70937C14.8938 3.97334 15.3951 4.48737 15.6549 5.11718C15.7871 5.43671 15.8646 5.78403 15.8646 6.14987C15.8646 6.49256 15.7962 6.82136 15.6823 7.12237C15.6458 7.21962 15.6914 7.32613 15.7825 7.36781C16.3613 7.62251 16.8262 8.0856 17.0996 8.65984C17.2637 9.00716 17.3548 9.39152 17.3548 9.79905C17.3548 10.2066 17.2591 10.5956 17.0996 10.9383C16.8307 11.5125 16.3613 11.9756 15.7825 12.2303C15.6914 12.272 15.6458 12.3785 15.6823 12.4757C15.8007 12.7767 15.8646 13.1055 15.8646 13.4482C15.8646 13.7585 15.8144 14.0595 15.7142 14.3374C15.3541 15.333 14.4882 16.0693 13.2531 16.1064C12.7837 16.1203 11.6352 16.2685 10.4685 16.9585C10.9744 17.403 11.4301 17.9263 11.7993 18.4959C11.7993 18.4959 12.4464 18.1532 13.3898 18.0884C15.8509 18.0143 17.8243 15.9674 17.8243 13.4482C17.8243 13.3741 17.8243 13.3047 17.8197 13.2306C18.7358 12.3831 19.3146 11.1559 19.3146 9.79441" fill="#272726"/>
<path d="M7.51073 26.7575C6.94561 27.0215 6.31212 27.1697 5.64673 27.1697V29.161C6.80888 29.161 7.90268 28.8461 8.84151 28.295C8.33108 27.8458 7.88445 27.3271 7.51073 26.7575Z" fill="#272726"/>
<path d="M11.7902 26.7575C11.5031 26.6232 11.2342 26.4611 10.9835 26.2713C10.423 25.8498 9.96267 25.2895 9.64821 24.6504C9.39299 24.1318 9.22892 23.5483 9.19702 22.9185C9.1879 22.812 9.18334 22.4461 9.17879 22.372C9.10587 21.3393 8.60455 20.427 7.85256 19.8204C7.45151 20.6725 7.22363 21.6357 7.22363 22.6452C7.22363 23.9928 7.62925 25.2339 8.31743 26.2713C8.32198 26.2805 8.83242 27.0863 9.65732 27.7439C11.5168 29.2351 13.399 29.1517 13.6542 29.161V27.1836V27.1743C12.565 27.1743 11.7993 26.7621 11.7948 26.7621" fill="#272726"/>
<path d="M48.6965 11.2809L41.2314 12.8369L40.7893 10.8503L48.0813 8.45608L48.6965 11.2809Z" fill="#272726"/>
<path d="M120.75 9.75737H118.33V27.8365H120.75V9.75737Z" fill="#272726"/>
<path d="M126.98 14.4022L127.153 16.4028C127.595 15.6896 128.147 15.1385 128.808 14.7449C129.473 14.3513 130.225 14.1568 131.073 14.1568C132.499 14.1568 133.602 14.5828 134.386 15.4303C135.17 16.2777 135.557 17.5883 135.557 19.3619V27.8411H133.151V19.4082C133.151 18.2227 132.919 17.3845 132.458 16.889C131.998 16.3935 131.296 16.1434 130.353 16.1434C129.61 16.1434 128.981 16.2962 128.466 16.5973C127.946 16.8983 127.541 17.3243 127.235 17.8708V27.8411H124.829V14.4022H126.98Z" fill="#272726"/>
<path d="M146.741 24.2244C146.741 23.6872 146.541 23.2473 146.135 22.9092C145.73 22.5712 144.969 22.2701 143.843 22.0154C142.289 21.6774 141.09 21.2004 140.256 20.5891C139.422 19.9778 139.003 19.1582 139.003 18.1301C139.003 17.0372 139.463 16.1017 140.379 15.3237C141.295 14.5458 142.485 14.1568 143.943 14.1568C145.401 14.1568 146.655 14.5689 147.584 15.3978C148.514 16.2268 148.956 17.19 148.915 18.2922L148.892 18.3663H146.596C146.596 17.7874 146.345 17.2595 145.844 16.7918C145.342 16.3194 144.709 16.0832 143.943 16.0832C143.095 16.0832 142.462 16.2777 142.043 16.6667C141.623 17.0557 141.414 17.5188 141.414 18.056C141.414 18.5932 141.596 18.9961 141.956 19.2832C142.316 19.5749 143.063 19.8389 144.198 20.0797C145.821 20.427 147.051 20.9179 147.89 21.557C148.728 22.196 149.148 23.025 149.148 24.053C149.148 25.2432 148.674 26.2157 147.726 26.9705C146.778 27.7254 145.538 28.1005 144.007 28.1005C142.321 28.1005 140.994 27.6652 140.024 26.7946C139.053 25.9239 138.593 24.9098 138.643 23.752L138.666 23.6779H140.962C141.003 24.5486 141.323 25.183 141.915 25.5859C142.507 25.9888 143.205 26.1879 144.002 26.1879C144.859 26.1879 145.529 26.0027 146.012 25.6368C146.495 25.271 146.737 24.7986 146.737 24.229" fill="#272726"/>
<path d="M163.408 21.6264C163.408 23.5622 162.952 25.1274 162.041 26.3129C161.129 27.5031 159.871 28.0958 158.263 28.0958C157.447 28.0958 156.731 27.9569 156.116 27.6791C155.501 27.4012 154.977 26.9844 154.544 26.4333V33H152.137V14.4022H153.983L154.361 16.1388C154.794 15.4951 155.332 14.9996 155.975 14.6615C156.617 14.3235 157.369 14.1521 158.222 14.1521C159.858 14.1521 161.134 14.8143 162.041 16.1342C162.948 17.454 163.404 19.1998 163.404 21.3671V21.6264H163.408ZM161.002 21.3671C161.002 19.8435 160.705 18.5932 160.118 17.6114C159.525 16.6297 158.659 16.1388 157.511 16.1388C156.818 16.1388 156.225 16.3009 155.738 16.6158C155.25 16.9353 154.854 17.3706 154.553 17.9263V24.4189C154.854 24.9746 155.25 25.4053 155.738 25.7155C156.225 26.0258 156.827 26.1786 157.533 26.1786C158.673 26.1786 159.539 25.7526 160.122 24.9051C160.71 24.0577 161.002 22.9601 161.002 21.6218V21.3625V21.3671Z" fill="#272726"/>
<path d="M168.968 10.9614H166.562V8.46534H168.968V10.9614ZM168.968 27.8365H166.562V14.4022H168.968V27.8365Z" fill="#272726"/>
<path d="M178.926 16.5602L177.691 16.4861C177.058 16.4861 176.52 16.6389 176.082 16.9446C175.645 17.2502 175.312 17.6809 175.075 18.2366V27.8319H172.669V14.4022H174.82L175.052 16.3657C175.426 15.6711 175.891 15.1292 176.438 14.7403C176.989 14.3513 177.623 14.1568 178.338 14.1568C178.516 14.1568 178.689 14.1706 178.853 14.1984C179.017 14.2262 179.15 14.2586 179.259 14.2911L178.931 16.5648L178.926 16.5602Z" fill="#272726"/>
<path d="M189.559 27.8365C189.477 27.429 189.413 27.0724 189.367 26.7621C189.322 26.4519 189.295 26.137 189.29 25.8221C188.843 26.4704 188.255 27.0076 187.535 27.4429C186.815 27.8782 186.04 28.0958 185.206 28.0958C183.83 28.0958 182.782 27.7393 182.062 27.0215C181.342 26.3037 180.982 25.3173 180.982 24.0577C180.982 22.7981 181.492 21.77 182.518 21.0476C183.538 20.3251 184.928 19.9593 186.679 19.9593H189.295V18.6302C189.295 17.843 189.058 17.2224 188.584 16.764C188.11 16.3055 187.444 16.074 186.578 16.074C185.794 16.074 185.165 16.2731 184.682 16.6713C184.204 17.0696 183.962 17.5466 183.962 18.0977L181.679 18.1208L181.656 18.0467C181.602 17.0696 182.048 16.1758 183.005 15.3654C183.962 14.555 185.197 14.1475 186.715 14.1475C188.233 14.1475 189.418 14.5365 190.334 15.3098C191.245 16.0832 191.701 17.1993 191.701 18.658V25.1274C191.701 25.609 191.724 26.0721 191.774 26.5167C191.824 26.9659 191.911 27.4012 192.043 27.8319H189.563L189.559 27.8365ZM185.562 26.049C186.432 26.049 187.221 25.8221 187.923 25.3682C188.625 24.9144 189.08 24.3911 189.29 23.803V21.6172H186.587C185.617 21.6172 184.842 21.8672 184.259 22.3628C183.675 22.8583 183.383 23.4418 183.383 24.1132C183.383 24.7106 183.566 25.183 183.935 25.5303C184.3 25.8776 184.842 26.0536 185.562 26.0536" fill="#272726"/>
<path d="M198.605 10.1232C199.038 10.364 199.376 10.6974 199.626 11.1235C199.877 11.5495 200 12.0311 200 12.5637C200 13.0963 199.877 13.6103 199.626 14.041C199.38 14.4716 199.038 14.8097 198.61 15.0505C198.182 15.2913 197.703 15.4117 197.174 15.4117C196.646 15.4117 196.153 15.2913 195.721 15.0505C195.288 14.8097 194.946 14.4716 194.7 14.041C194.449 13.6103 194.326 13.1148 194.326 12.5637C194.326 12.0126 194.454 11.5449 194.704 11.1235C194.955 10.6974 195.301 10.364 195.734 10.1232C196.167 9.8824 196.65 9.76199 197.174 9.76199C197.698 9.76199 198.172 9.8824 198.601 10.1232M198.277 14.5272C198.61 14.342 198.87 14.0827 199.057 13.7446C199.243 13.4065 199.339 13.0222 199.339 12.5869C199.339 12.1516 199.243 11.7764 199.057 11.443C198.865 11.105 198.61 10.8456 198.277 10.6558C197.945 10.4659 197.575 10.3733 197.161 10.3733C196.746 10.3733 196.381 10.4659 196.044 10.6558C195.707 10.841 195.442 11.105 195.256 11.443C195.064 11.7811 194.973 12.1608 194.973 12.5869C194.973 13.0129 195.069 13.4065 195.256 13.74C195.442 14.0734 195.707 14.3327 196.04 14.5226C196.372 14.7078 196.746 14.8051 197.165 14.8051C197.585 14.8051 197.949 14.7125 198.282 14.5318M197.808 12.9157L198.204 13.7631H197.594L197.256 13.0036H196.787V13.7631H196.204V11.4152H197.352C197.63 11.4152 197.844 11.4893 197.995 11.6329C198.145 11.7764 198.223 11.9709 198.223 12.2071C198.223 12.5359 198.086 12.7721 197.799 12.9157M196.782 12.4572H197.279C197.493 12.4572 197.598 12.3785 197.598 12.2164C197.598 12.0543 197.493 11.9617 197.279 11.9617H196.782V12.4572Z" fill="#272726"/>
<path d="M112.834 9.75737H110.414V27.8365H112.834V9.75737Z" fill="#F15F00"/>
</g>
<defs>
<clipPath id="clip0_173_239">
<rect width="200" height="33" fill="white"/>
</clipPath>
</defs>
</svg>
